<svg width="30" height="32" viewBox="0 0 30 32" fill="none" xmlns="http://www.w3.org/2000/svg">
<path d="M28.9387 17.3875C28.2023 20.1854 24.7223 22.1625 17.7619 26.1169C11.0333 29.9394 7.66917 31.8508 4.95798 31.0825C3.83708 30.7648 2.81581 30.1617 1.99217 29.3306C3.72529e-07 27.3206 0 23.4221 0 15.625C0 7.82792 3.72529e-07 3.92938 1.99217 1.91942C2.81581 1.08844 3.83708 0.485167 4.95798 0.167542C7.66917 -0.600729 11.0333 1.31056 17.7619 5.13319C24.7223 9.08744 28.2023 11.0646 28.9387 13.8625C29.2427 15.0175 29.2427 16.2325 28.9387 17.3875Z" fill="#EEEEEE"/>
</svg>
