<svg width="40" height="20" viewBox="0 0 40 20" fill="none" xmlns="http://www.w3.org/2000/svg">
<path d="M2.48989 0.00805664H37.5101C38.9006 0.00805664 40 1.13983 40 2.49795V17.502C40 18.8925 38.8682 19.9919 37.5101 19.9919H2.48989C1.09943 19.9919 0 18.8601 0 17.502V2.49795C0 1.13983 1.13177 0.00805664 2.48989 0.00805664Z" fill="#FFB400"/>
<path d="M5.01155 15.6588H8.11584V4.37341H5.01155V15.6588Z" fill="#111111"/>
<path d="M14.8094 4.37329L14.098 9.64411L13.6777 6.79851C13.5483 5.8931 13.419 5.08469 13.322 4.40563H9.37693V15.6587H12.0285V8.22131L13.1603 15.6587H15.0358L16.1029 8.05963V15.6587H18.7545V4.37329H14.8094Z" fill="#111111"/>
<path d="M20.0153 15.6587V4.37329H24.8981C25.9975 4.37329 26.9029 5.24637 26.9029 6.34581V13.6215C26.9029 14.7209 25.9975 15.594 24.8981 15.594H20.0153V15.6587ZM23.6693 6.41048C23.5399 6.34581 23.3136 6.31347 22.9579 6.31347V13.6861C23.4106 13.6861 23.7016 13.5891 23.7986 13.4275C23.8956 13.2658 23.9603 12.8131 23.9603 12.037V7.70393C23.9603 7.18655 23.928 6.86319 23.8956 6.73384C23.8633 6.57216 23.7986 6.47515 23.6693 6.41048Z" fill="#111111"/>
<path d="M32.7885 7.21889H32.9825C34.1143 7.21889 35.0197 8.09197 35.0197 9.1914V13.7185C35.0197 14.8179 34.1143 15.691 32.9825 15.691H32.7885C32.1094 15.691 31.495 15.3676 31.1393 14.8503L30.9453 15.5293H28.1321V4.37329H31.1393V7.99496C31.5274 7.50991 32.1094 7.21889 32.7885 7.21889ZM32.1418 12.6837V10.0321C32.1418 9.57944 32.1094 9.28841 32.0448 9.15906C31.9801 9.02972 31.7537 8.93271 31.5921 8.93271C31.4304 8.93271 31.1717 8.99738 31.107 9.12673V10.0321V12.7807V13.6538C31.1717 13.7832 31.398 13.8478 31.5921 13.8478C31.7537 13.8478 32.0124 13.7832 32.0448 13.6538C32.1418 13.5245 32.1418 13.2011 32.1418 12.6837Z" fill="#111111"/>
</svg>
