<svg width="14" height="14" viewBox="0 0 14 14" fill="none" xmlns="http://www.w3.org/2000/svg">
<path fill-rule="evenodd" clip-rule="evenodd" d="M9.42095 4.66666L9.19083 5.24751L8.17227 7.81856L7.67258 9.07987L6.41666 12.25H7.96907L8.60567 10.5285H11.744L12.3917 12.25H14L10.9957 4.66666H9.47433H9.42095ZM9.29128 8.69294L9.08591 9.2428H9.71565H11.2749L10.1805 6.3119L9.29128 8.69294ZM8.33632 4.23696C8.35969 4.17796 8.38752 4.12164 8.41935 4.06835H5.6167V1.75H4.31025V4.06835H0.473202V5.24751H3.77533C2.93179 6.81638 1.53276 8.3253 0 9.12476C0.288036 9.37458 0.709803 9.83421 0.915539 10.144C2.23228 9.34456 3.41528 8.07548 4.31025 6.62652V11.0834H5.6167V6.57655C5.96707 7.13349 6.35905 7.66648 6.78309 8.15755L7.27996 6.90336C6.82667 6.37921 6.42802 5.81612 6.11048 5.24751H7.93597L8.33632 4.23696Z" fill="white"/>
</svg>
