<svg width="12" height="13" viewBox="0 0 12 13" fill="none" xmlns="http://www.w3.org/2000/svg">
<path d="M11.5755 6.955C11.2809 8.07417 9.88892 8.865 7.10475 10.4467C4.41333 11.9757 3.06767 12.7403 1.98319 12.433C1.53483 12.3059 1.12633 12.0647 0.796867 11.7322C1.49012e-07 10.9282 0 9.36883 0 6.25C0 3.13117 1.49012e-07 1.57175 0.796867 0.767767C1.12633 0.435375 1.53483 0.194067 1.98319 0.0670169C3.06767 -0.240291 4.41333 0.524225 7.10475 2.05328C9.88892 3.63498 11.2809 4.42583 11.5755 5.545C11.6971 6.007 11.6971 6.493 11.5755 6.955Z" fill="white"/>
</svg>
